<svg xmlns="http://www.w3.org/2000/svg" width="192" height="192" viewBox="0 0 192 192">
  <rect width="192" height="192" fill="#4f6df5" rx="48" ry="48"/>
  <g transform="translate(48, 48) scale(0.375)">
    <path d="M128 18.133c-60.895 0-110.933 50.038-110.933 110.934C17.067 190.961 67.104 241 128 241c60.895 0 110.933-50.039 110.933-110.933 0-60.896-50.038-110.934-110.933-110.934zm0 198.934C73.722 217.067 30.933 174.278 30.933 129S73.722 40.933 128 40.933 225.067 83.722 225.067 129 182.278 217.067 128 217.067z" fill="#ffffff"/>
    <path d="M210.217 91.623c-6.348-8.747-15.517-13.865-25.893-14.461-10.376-.596-20.15 3.459-27.49 11.438L128 122.733 99.166 88.6c-7.342-7.979-17.115-12.033-27.49-11.438-10.377.596-19.546 5.714-25.894 14.461-11.955 16.475-8.285 39.488 8.19 51.443l65.496 47.55a13.97 13.97 0 0 0 16.533 0l65.026-47.2c16.475-11.954 20.145-34.967 8.19-51.443zM128 175.5c-2.232 0-4.35-.797-6.023-2.258l-65.495-47.55c-11.1-8.058-13.577-23.592-5.519-34.692 4.235-5.833 10.357-9.25 17.262-9.642 6.904-.395 13.436 2.307 18.328 7.626l32.276 35.062a6.933 6.933 0 0 0 10.256.455c.152-.141.297-.29.436-.444l28.523-32.841c4.892-5.32 11.424-8.02 18.328-7.626 6.905.391 13.027 3.809 17.262 9.642 8.058 11.1 5.581 26.634-5.519 34.692l-65.026 47.2A12.84 12.84 0 0 1 128 175.5z" fill="#ffffff"/>
    <path d="M227.556 159.289c-3.828 0-6.933 3.104-6.933 6.933v30.934c0 3.828-3.105 6.933-6.934 6.933H42.311c-3.829 0-6.933-3.105-6.933-6.933V166.22c0-3.829-3.105-6.933-6.934-6.933s-6.933 3.104-6.933 6.933v30.934c0 11.486 9.315 20.8 20.8 20.8h171.378c11.486 0 20.8-9.314 20.8-20.8V166.22c0-3.829-3.105-6.933-6.933-6.933z" fill="#ffffff"/>
  </g>
</svg>
